<?xml version="1.0" standalone="no"?>
<!DOCTYPE svg PUBLIC "-//W3C//DTD SVG 20010904//EN"
 "http://www.w3.org/TR/2001/REC-SVG-20010904/DTD/svg10.dtd">
<svg version="1.0" xmlns="http://www.w3.org/2000/svg"
 width="1200.000000pt" height="353.000000pt" viewBox="0 0 1200.000000 353.000000"
 preserveAspectRatio="xMidYMid meet">

<g transform="translate(0.000000,353.000000) scale(0.100000,-0.100000)"
fill="#000000" stroke="none">
<path d="M10225 3241 c-109 -23 -179 -47 -265 -91 -210 -106 -381 -282 -481
-494 -21 -46 -39 -87 -39 -91 0 -3 22 19 50 51 103 118 229 214 377 288 184
92 347 129 563 128 347 0 658 -135 902 -390 81 -85 83 -81 22 40 -137 272
-379 469 -672 545 -135 35 -330 41 -457 14z"/>
<path d="M120 2935 c0 -92 1 -98 25 -117 l25 -19 0 -268 0 -268 -25 -23 c-23
-22 -25 -31 -25 -112 l0 -88 250 0 250 0 0 95 c0 76 -3 97 -15 101 -10 4 -15
20 -15 45 l0 39 108 0 c140 0 232 14 303 46 110 49 140 105 147 269 2 64 -1
134 -7 166 -21 99 -98 166 -238 206 -48 13 -124 17 -420 20 l-363 5 0 -97z
m571 -145 c28 -15 39 -51 39 -125 0 -103 -26 -135 -110 -135 l-40 0 0 141 0
142 45 -7 c25 -3 55 -11 66 -16z"/>
<path d="M1240 2943 c0 -76 3 -90 23 -111 22 -23 22 -27 22 -297 0 -270 0
-274 -22 -297 -20 -21 -23 -35 -23 -111 l0 -87 245 0 245 0 0 83 c0 63 -5 92
-20 122 -16 30 -20 59 -20 127 l0 88 69 0 68 0 6 -55 c7 -73 -2 -162 -19 -176
-10 -8 -14 -38 -14 -100 l0 -89 250 0 250 0 0 81 c0 68 -4 86 -22 112 -22 31
-23 41 -26 292 l-3 261 26 37 c22 33 25 48 25 122 l0 85 -250 0 -250 0 0 -89
c0 -63 4 -92 14 -100 17 -15 27 -89 19 -146 l-6 -45 -68 0 -69 0 0 68 c0 48 6
79 20 107 15 30 20 59 20 122 l0 83 -245 0 -245 0 0 -87z"/>
<path d="M2440 2942 c0 -62 4 -94 15 -108 22 -29 22 -576 0 -598 -11 -11 -15
-38 -15 -105 l0 -91 488 2 487 3 0 175 0 175 -192 3 -193 2 0 -54 c0 -47 -4
-57 -26 -75 -18 -14 -41 -21 -70 -21 l-44 0 0 95 0 95 130 0 130 0 0 95 0 95
-130 0 -130 0 0 90 0 90 34 0 c40 0 87 -16 98 -33 4 -7 8 -31 8 -55 l0 -42
193 2 192 3 0 170 0 170 -487 3 -488 2 0 -88z"/>
<path d="M3530 2945 c0 -76 2 -86 25 -109 l25 -25 0 -271 0 -271 -25 -25 c-23
-23 -25 -32 -25 -115 l0 -89 203 2 202 3 3 88 c3 82 1 90 -23 118 -23 28 -25
38 -25 127 1 89 2 95 15 72 8 -14 63 -110 123 -215 l109 -190 197 -3 196 -2 0
379 0 379 25 31 c24 28 26 36 23 113 l-3 83 -207 3 -208 2 0 -89 c0 -66 4 -92
15 -101 12 -10 15 -37 14 -129 l0 -116 -110 218 -109 217 -220 0 -220 0 0 -85z"/>
<path d="M4717 3023 c-4 -3 -7 -42 -7 -86 0 -70 3 -81 23 -97 22 -18 22 -22
25 -292 l3 -274 -26 -38 c-23 -34 -25 -46 -23 -115 l3 -76 253 -3 252 -2 2 57
c3 90 -1 113 -22 141 -19 23 -20 41 -20 296 0 254 2 273 20 296 16 20 20 41
20 113 l0 87 -248 0 c-137 0 -252 -3 -255 -7z"/>
<path d="M5364 2984 c-9 -61 2 -133 24 -157 15 -17 17 -49 20 -292 l3 -272
-26 -31 c-24 -28 -26 -37 -23 -109 l3 -78 243 -3 242 -2 0 85 c0 58 -5 96 -15
116 -12 21 -15 53 -13 116 l3 87 61 -89 c75 -110 84 -137 84 -236 l0 -79 230
0 230 0 0 88 c0 83 -1 89 -23 99 -25 11 -241 336 -235 352 10 27 184 236 209
250 29 16 29 17 29 109 l0 92 -220 0 -220 0 0 -97 c-1 -112 -6 -124 -90 -226
l-55 -66 -3 74 c-2 52 2 83 13 104 10 21 15 59 15 121 l0 90 -239 0 -240 0 -7
-46z"/>
<path d="M6735 3018 c-2 -7 -40 -168 -85 -358 -88 -374 -92 -390 -121 -416
-16 -14 -19 -31 -19 -111 l0 -93 220 0 220 0 0 86 c0 71 -4 90 -20 111 -11 14
-20 34 -20 44 0 17 9 19 95 19 86 0 95 -2 95 -19 0 -10 -9 -30 -20 -44 -16
-21 -20 -40 -20 -111 l0 -86 255 0 255 0 0 90 c0 77 -3 91 -19 99 -31 17 -46
62 -131 401 -44 179 -86 342 -91 363 l-10 37 -290 0 c-223 0 -291 -3 -294 -12z
m319 -490 c5 -28 5 -28 -52 -28 l-58 0 22 104 c37 177 34 174 60 56 12 -58 25
-117 28 -132z"/>
<path d="M7761 2678 c-81 -340 -106 -428 -130 -442 -7 -5 -11 -43 -11 -102 l0
-94 220 0 220 0 0 87 c0 71 -3 90 -19 107 -10 12 -22 31 -26 44 -6 22 -5 22
94 22 111 0 115 -2 81 -58 -16 -26 -20 -50 -20 -117 l0 -85 253 2 252 3 3 78
c3 75 1 80 -27 113 -35 40 -34 34 -142 461 l-84 333 -291 0 -290 0 -83 -352z
m375 -35 c33 -151 34 -143 -32 -143 -54 0 -56 1 -50 23 3 12 15 70 27 130 12
59 24 105 26 103 3 -2 15 -53 29 -113z"/>
<path d="M9341 2784 c-267 -286 -410 -711 -372 -1104 68 -685 566 -1211 1246
-1316 130 -21 372 -13 500 14 430 93 799 371 992 748 86 166 85 168 -24 63
-207 -198 -439 -321 -716 -381 -146 -31 -408 -31 -554 0 -297 64 -545 202
-753 419 -239 249 -366 540 -395 908 -16 197 45 504 137 688 10 20 17 37 14
37 -2 0 -36 -34 -75 -76z"/>
<path d="M11435 2845 c68 -211 89 -359 82 -570 -9 -243 -49 -403 -157 -620
-148 -296 -369 -520 -675 -681 l-116 -61 63 -6 c126 -13 373 21 528 73 105 35
263 114 362 182 52 35 142 112 204 173 107 107 111 112 122 170 79 411 0 802
-229 1135 -63 91 -195 238 -184 205z"/>
<path d="M6660 1678 c-56 -29 -82 -73 -82 -137 0 -85 37 -131 131 -162 88 -30
121 -63 121 -122 0 -96 -107 -144 -170 -77 -16 17 -30 43 -32 58 -2 22 -9 28
-35 30 -30 3 -33 1 -33 -26 0 -16 10 -48 23 -72 26 -50 90 -90 144 -90 109 0
192 111 164 218 -21 81 -51 108 -151 138 -65 19 -100 54 -100 98 0 49 41 96
85 96 41 0 82 -31 90 -70 5 -25 12 -30 36 -30 25 0 29 4 29 28 0 67 -76 141
-145 142 -17 0 -51 -10 -75 -22z"/>
<path d="M2435 1478 c3 -249 9 -281 71 -337 69 -65 162 -78 249 -37 112 53
125 91 125 372 l0 214 -34 0 -34 0 -4 -217 c-3 -206 -4 -220 -26 -254 -59 -96
-204 -90 -254 11 -15 30 -18 65 -18 248 l0 212 -38 0 -39 0 2 -212z"/>
<path d="M3220 1390 l0 -300 35 0 35 0 2 245 3 246 150 -243 c142 -230 152
-243 183 -246 l32 -3 0 300 0 301 -30 0 -30 0 0 -230 c0 -126 -3 -230 -7 -230
-5 1 -71 104 -148 230 l-140 230 -42 0 -43 0 0 -300z"/>
<path d="M4010 1390 l0 -300 30 0 30 0 0 300 0 300 -30 0 -30 0 0 -300z"/>
<path d="M4380 1682 c0 -8 90 -249 186 -499 33 -87 37 -93 63 -93 28 0 30 5
140 295 61 162 111 297 111 300 0 3 -15 5 -32 5 l-33 0 -89 -243 c-49 -133
-92 -245 -95 -249 -3 -4 -46 105 -96 243 l-90 249 -32 0 c-18 0 -33 -4 -33 -8z"/>
<path d="M5170 1390 l0 -300 195 0 195 0 0 35 0 35 -165 0 -165 0 0 100 0 100
165 0 165 0 0 30 0 30 -162 2 -163 3 0 100 0 100 163 3 162 2 0 30 0 30 -195
0 -195 0 0 -300z"/>
<path d="M5900 1390 l0 -300 35 0 35 0 0 271 0 272 75 -6 c42 -4 89 -14 105
-22 36 -19 60 -62 60 -110 0 -80 -54 -125 -150 -125 -28 0 -50 -4 -48 -9 2 -4
44 -67 93 -139 88 -129 91 -132 128 -132 20 0 37 2 37 5 0 3 -32 52 -71 108
l-70 102 39 16 c63 27 112 102 112 174 0 78 -63 164 -135 184 -22 6 -86 11
-142 11 l-103 0 0 -300z"/>
<path d="M7220 1390 l0 -300 30 0 30 0 0 300 0 300 -30 0 -30 0 0 -300z"/>
<path d="M7580 1660 l0 -30 60 0 60 0 0 -270 0 -270 35 0 35 0 0 270 0 270 60
0 60 0 0 30 0 30 -155 0 -155 0 0 -30z"/>
<path d="M8153 1678 c2 -7 52 -96 111 -198 l106 -185 0 -102 0 -103 40 0 40 0
0 103 0 103 106 183 c58 101 108 189 111 197 4 11 -5 14 -35 14 l-40 0 -88
-160 c-49 -88 -91 -160 -94 -160 -3 0 -45 72 -94 160 l-88 160 -40 0 c-28 0
-39 -4 -35 -12z"/>
<path d="M6533 845 c-6 -19 -10 -15 49 -47 26 -14 49 -23 52 -20 15 14 2 32
-40 56 -55 31 -53 30 -61 11z"/>
<path d="M5448 762 c-35 -21 -45 -31 -38 -42 7 -12 17 -10 60 10 32 15 50 29
48 39 -5 24 -20 22 -70 -7z"/>
<path d="M2970 745 c-30 -31 -32 -35 -13 -35 11 0 32 10 47 21 l27 21 23 -21
c12 -11 33 -21 46 -21 23 0 23 1 -10 35 -22 22 -43 35 -60 35 -17 0 -38 -13
-60 -35z"/>
<path d="M6505 745 c-33 -28 -36 -34 -20 -35 11 0 34 8 50 18 29 18 31 18 60
0 17 -10 39 -18 50 -18 16 1 13 7 -20 35 -22 19 -49 35 -60 35 -11 0 -38 -16
-60 -35z"/>
<path d="M2440 575 c0 -188 1 -195 20 -195 19 0 20 7 20 90 l0 90 100 0 100 0
0 -90 c0 -83 1 -90 20 -90 19 0 20 7 20 195 0 188 -1 195 -20 195 -18 0 -20
-7 -20 -85 l0 -85 -100 0 -100 0 0 85 c0 78 -2 85 -20 85 -19 0 -20 -7 -20
-195z"/>
<path d="M2790 735 c0 -28 4 -35 20 -35 16 0 20 7 20 35 0 28 -4 35 -20 35
-16 0 -20 -7 -20 -35z"/>
<path d="M3730 720 c0 -49 -1 -50 -30 -50 -23 0 -30 -4 -30 -20 0 -16 7 -20
30 -20 l30 0 0 -125 c0 -118 1 -125 20 -125 19 0 20 7 20 125 l0 125 30 0 c23
0 30 4 30 20 0 16 -7 20 -30 20 -29 0 -30 1 -30 50 0 43 -3 50 -20 50 -17 0
-20 -7 -20 -50z"/>
<path d="M3870 575 c0 -188 1 -195 20 -195 19 0 20 7 20 104 0 98 1 105 26
130 35 35 86 35 119 1 23 -23 25 -31 25 -130 0 -98 1 -105 20 -105 19 0 20 7
20 104 0 125 -18 162 -88 184 -38 13 -46 12 -82 -6 l-40 -19 0 63 c0 57 -2 64
-20 64 -19 0 -20 -7 -20 -195z"/>
<path d="M4990 575 c0 -167 2 -195 15 -195 12 0 15 16 15 85 0 51 6 99 14 120
26 62 89 74 137 26 28 -29 29 -32 29 -130 0 -94 1 -101 20 -101 19 0 20 7 20
95 0 108 -14 154 -55 181 -34 22 -106 22 -139 0 l-26 -16 0 65 c0 51 -3 65
-15 65 -13 0 -15 -28 -15 -195z"/>
<path d="M6180 720 c0 -49 -1 -50 -30 -50 -23 0 -30 -4 -30 -20 0 -16 7 -20
30 -20 l30 0 0 -125 c0 -118 1 -125 20 -125 19 0 20 7 20 124 l0 125 33 3 c20
2 32 8 32 18 0 10 -12 16 -32 18 -32 3 -33 4 -33 53 0 42 -3 49 -20 49 -17 0
-20 -7 -20 -50z"/>
<path d="M6320 735 c0 -28 4 -35 20 -35 16 0 20 7 20 35 0 28 -4 35 -20 35
-16 0 -20 -7 -20 -35z"/>
<path d="M7780 751 c0 -20 46 -41 87 -41 31 0 49 7 70 26 l28 25 -30 -6 c-66
-15 -103 -16 -109 -6 -9 13 -46 15 -46 2z"/>
<path d="M4432 695 c4 -19 1 -25 -13 -25 -17 0 -19 -9 -19 -99 0 -92 -2 -102
-26 -130 -34 -40 -89 -43 -123 -7 -20 21 -23 35 -24 127 -2 90 -4 104 -19 107
-16 3 -18 -7 -18 -105 0 -131 15 -165 80 -183 43 -12 70 -7 108 16 19 13 22
13 22 -1 0 -8 9 -15 20 -15 19 0 20 7 20 120 0 107 2 122 20 140 11 11 20 33
20 50 0 26 -4 30 -26 30 -23 0 -26 -3 -22 -25z"/>
<path d="M2992 670 c-62 -14 -112 -80 -112 -147 0 -38 29 -97 59 -120 32 -25
89 -35 132 -22 37 12 99 67 99 89 0 21 -33 8 -64 -25 -28 -29 -40 -35 -76 -35
-34 0 -48 6 -76 34 -60 60 -52 66 96 66 148 0 148 0 108 80 -33 65 -98 96
-166 80z m88 -45 c16 -9 37 -29 45 -45 l16 -30 -111 0 c-73 0 -110 4 -110 11
0 6 15 26 34 45 38 38 77 44 126 19z"/>
<path d="M3327 670 c-16 -5 -35 -14 -43 -21 -11 -9 -14 -8 -14 5 0 9 -8 16
-20 16 -19 0 -20 -7 -20 -145 0 -138 1 -145 20 -145 19 0 20 7 20 101 0 98 1
101 29 130 48 48 111 36 137 -26 8 -21 14 -69 14 -120 0 -69 3 -85 15 -85 12
0 15 19 15 109 0 103 -2 111 -25 140 -34 39 -81 55 -128 41z"/>
<path d="M4597 666 c-51 -19 -67 -34 -89 -84 -51 -114 57 -236 179 -203 34 10
103 65 103 83 0 18 -34 6 -67 -22 -56 -49 -145 -35 -178 30 -59 115 82 225
179 139 20 -17 43 -29 53 -27 31 6 -40 74 -91 87 -53 13 -42 13 -89 -3z"/>
<path d="M5395 665 c-80 -28 -120 -113 -90 -190 19 -50 37 -68 89 -90 93 -39
196 34 196 140 0 105 -97 175 -195 140z m118 -55 c58 -51 55 -129 -8 -178 -52
-41 -135 -19 -161 43 -18 44 -18 59 2 101 33 68 110 84 167 34z"/>
<path d="M5755 670 c-77 -17 -115 -65 -115 -145 0 -91 58 -148 152 -149 34 0
57 7 78 22 30 22 30 22 30 2 0 -13 7 -20 20 -20 19 0 20 7 20 145 0 138 -1
145 -20 145 -13 0 -20 -7 -20 -20 0 -20 0 -20 -27 -1 -33 23 -77 31 -118 21z
m85 -45 c42 -21 60 -53 60 -103 0 -37 -6 -50 -34 -78 -26 -26 -42 -34 -70 -34
-52 0 -90 23 -111 66 -47 100 56 200 155 149z"/>
<path d="M6515 665 c-132 -46 -133 -230 -1 -280 35 -14 51 -15 84 -6 43 12
102 62 102 87 0 22 -28 16 -45 -9 -43 -66 -153 -59 -190 13 -8 16 -15 31 -15
35 0 3 59 5 131 5 l132 0 -6 41 c-6 42 -53 104 -86 113 -50 13 -70 13 -106 1z
m121 -59 c19 -19 34 -39 34 -45 0 -7 -37 -11 -111 -11 l-110 0 18 31 c39 67
115 79 169 25z"/>
<path d="M6843 665 c-20 -8 -35 -10 -38 -4 -4 5 -13 9 -21 9 -11 0 -14 -25
-14 -145 0 -138 1 -145 20 -145 19 0 20 7 20 108 0 100 2 110 23 130 31 29 72
28 102 -3 23 -23 25 -31 25 -130 0 -98 1 -105 20 -105 19 0 20 7 20 104 0 89
3 107 21 130 28 36 80 36 108 0 18 -23 21 -41 21 -130 0 -97 1 -104 20 -104
19 0 20 7 20 101 0 112 -14 157 -56 180 -36 19 -92 14 -125 -10 -29 -21 -29
-21 -56 -2 -39 27 -73 32 -110 16z"/>
<path d="M7477 661 c-29 -15 -37 -16 -37 -5 0 8 -9 14 -20 14 -19 0 -20 -7
-20 -145 0 -138 1 -145 20 -145 19 0 20 7 20 96 0 124 20 163 85 164 69 0 95
-50 95 -182 0 -63 3 -78 15 -78 12 0 15 19 15 109 0 103 -2 111 -26 140 -14
17 -42 35 -62 41 -47 13 -41 13 -85 -9z"/>
<path d="M7824 670 c-100 -22 -147 -139 -93 -227 41 -67 148 -90 209 -45 30
22 30 22 30 2 0 -13 7 -20 20 -20 19 0 20 7 20 145 0 138 -1 145 -20 145 -13
0 -20 -7 -20 -20 0 -20 0 -20 -27 -1 -34 23 -77 31 -119 21z m105 -56 c40 -33
55 -86 37 -129 -33 -79 -120 -100 -181 -42 -51 48 -51 113 -1 163 44 44 99 47
145 8z"/>
<path d="M8167 670 c-16 -5 -35 -14 -43 -21 -11 -9 -14 -8 -14 5 0 9 -7 16
-15 16 -13 0 -15 -23 -15 -145 0 -118 3 -145 14 -145 11 0 15 23 18 106 3 102
4 107 31 130 39 33 81 31 118 -5 28 -29 29 -32 29 -130 0 -94 1 -101 20 -101
19 0 20 6 19 93 0 50 -5 107 -12 126 -20 58 -88 90 -150 71z"/>
<path d="M8486 670 c-59 -18 -106 -83 -106 -145 0 -118 123 -186 225 -126 l38
22 -7 -33 c-18 -91 -122 -115 -189 -43 -13 15 -32 25 -41 23 -14 -3 -14 -7 4
-36 51 -83 203 -81 248 2 13 25 17 60 17 181 0 135 -2 150 -17 153 -13 2 -18
-3 -18 -17 0 -20 0 -20 -32 -2 -42 24 -86 32 -122 21z m94 -45 c103 -53 61
-215 -56 -215 -28 0 -44 8 -70 34 -29 29 -34 41 -34 81 0 40 5 52 34 81 38 38
77 44 126 19z"/>
<path d="M2790 526 c0 -140 1 -146 20 -146 20 0 20 5 18 142 -3 127 -5 143
-20 146 -17 3 -18 -9 -18 -142z"/>
<path d="M6327 663 c-4 -3 -7 -69 -7 -145 0 -131 1 -138 20 -138 19 0 20 7 20
145 0 114 -3 145 -13 145 -8 0 -17 -3 -20 -7z"/>
<path d="M3010 315 c0 -28 4 -35 20 -35 16 0 20 7 20 35 0 28 -4 35 -20 35
-16 0 -20 -7 -20 -35z"/>
<path d="M4310 315 c0 -28 4 -35 20 -35 16 0 20 7 20 35 0 28 -4 35 -20 35
-16 0 -20 -7 -20 -35z"/>
</g>
</svg>
